<svg width="32" height="32" viewBox="0 0 32 32" fill="none" xmlns="http://www.w3.org/2000/svg">
  <defs>
    <linearGradient id="bg" x1="4" y1="2" x2="28" y2="30" gradientUnits="userSpaceOnUse">
      <stop offset="0" stop-color="#0EA5A3"/>
      <stop offset="1" stop-color="#059669"/>
    </linearGradient>
  </defs>
  <rect width="32" height="32" rx="8" fill="url(#bg)"/>
  <path d="M8.5 13.5A1.5 1.5 0 0 1 10 12h12a1.5 1.5 0 0 1 1.5 1.5v10.8a2.7 2.7 0 0 1-2.7 2.7h-9.6a2.7 2.7 0 0 1-2.7-2.7V13.5Z" fill="#fff"/>
  <path d="M12.25 11.9V9.8a3.75 3.75 0 0 1 7.5 0v2.1" stroke="#ECFEFF" stroke-width="1.8" stroke-linecap="round"/>
  <circle cx="13" cy="18" r="1.25" fill="#F97316"/>
  <circle cx="16" cy="17.3" r="1.25" fill="#84CC16"/>
  <circle cx="19" cy="18" r="1.25" fill="#F43F5E"/>
  <path d="M9 8c4.5-2.8 10-2.8 14.5 0" stroke="#D1FAE5" stroke-opacity="0.45" stroke-width="1.4" stroke-linecap="round"/>
</svg>
