<svg width="512" height="512" viewBox="0 0 512 512" fill="none" xmlns="http://www.w3.org/2000/svg">
  <defs>
    <linearGradient id="bg" x1="48" y1="28" x2="464" y2="486" gradientUnits="userSpaceOnUse">
      <stop offset="0" stop-color="#0EA5A3"/>
      <stop offset="1" stop-color="#059669"/>
    </linearGradient>
  </defs>
  <rect width="512" height="512" rx="112" fill="url(#bg)"/>
  <path d="M122 202a22 22 0 0 1 22-22h224a22 22 0 0 1 22 22v198a44 44 0 0 1-44 44H166a44 44 0 0 1-44-44V202Z" fill="#fff"/>
  <path d="M192 180v-30a64 64 0 0 1 128 0v30" stroke="#ECFEFF" stroke-width="18" stroke-linecap="round"/>
  <circle cx="194" cy="286" r="20" fill="#F97316"/>
  <circle cx="256" cy="272" r="20" fill="#84CC16"/>
  <circle cx="318" cy="286" r="20" fill="#F43F5E"/>
  <path d="M128 140c74-48 182-48 256 0" stroke="#D1FAE5" stroke-opacity="0.45" stroke-width="12" stroke-linecap="round"/>
</svg>
