<svg width="192" height="192" viewBox="0 0 192 192" fill="none" xmlns="http://www.w3.org/2000/svg">
  <defs>
    <linearGradient id="bg" x1="18" y1="8" x2="174" y2="184" gradientUnits="userSpaceOnUse">
      <stop offset="0" stop-color="#0EA5A3"/>
      <stop offset="1" stop-color="#059669"/>
    </linearGradient>
  </defs>
  <rect width="192" height="192" fill="url(#bg)"/>
  <path d="M57 88a7 7 0 0 1 7-7h64a7 7 0 0 1 7 7v56a13 13 0 0 1-13 13H70a13 13 0 0 1-13-13V88Z" fill="#fff"/>
  <path d="M79 81V71a17 17 0 1 1 34 0v10" stroke="#ECFEFF" stroke-width="5" stroke-linecap="round"/>
  <circle cx="79" cy="118" r="5.5" fill="#F97316"/>
  <circle cx="96" cy="113" r="5.5" fill="#84CC16"/>
  <circle cx="113" cy="118" r="5.5" fill="#F43F5E"/>
  <path d="M58 63c18-12 58-12 76 0" stroke="#D1FAE5" stroke-opacity="0.45" stroke-width="4" stroke-linecap="round"/>
</svg>
